<?xml version="1.0" standalone="no"?>
<!DOCTYPE svg PUBLIC "-//W3C//DTD SVG 20010904//EN"
 "http://www.w3.org/TR/2001/REC-SVG-20010904/DTD/svg10.dtd">
<svg version="1.0" xmlns="http://www.w3.org/2000/svg"
 width="500.000000pt" height="500.000000pt" viewBox="0 0 500.000000 500.000000"
 preserveAspectRatio="xMidYMid meet">
<metadata>
Created by potrace 1.11, written by Peter Selinger 2001-2013
</metadata>
<g transform="translate(0.000000,500.000000) scale(0.100000,-0.100000)"
fill="#000000" stroke="none">
<path d="M825 4660 c-13 -5 11 -49 280 -505 46 -77 92 -156 103 -175 27 -48
550 -937 573 -975 11 -16 22 -36 26 -44 3 -8 31 -55 61 -105 30 -50 64 -107
75 -126 10 -19 44 -76 73 -127 30 -50 54 -96 54 -103 0 -10 -58 -111 -413
-715 -55 -93 -107 -183 -117 -200 -9 -16 -46 -79 -82 -140 -36 -60 -104 -175
-150 -255 -47 -80 -176 -300 -287 -489 -112 -189 -205 -349 -207 -355 -3 -8
373 -11 1403 -9 775 1 1416 2 1426 2 13 1 15 5 7 19 -7 12 -176 421 -247 598
-3 9 -206 12 -759 12 -415 0 -757 1 -759 4 -2 2 86 157 196 343 110 187 232
394 270 460 39 66 74 127 79 135 52 86 90 151 90 155 0 3 20 36 45 75 25 39
45 72 45 75 0 2 24 44 53 92 73 121 107 182 107 194 0 6 -92 166 -204 357
-112 191 -288 491 -391 667 -104 176 -196 334 -205 350 -10 17 -34 57 -54 90
-20 33 -36 62 -36 65 0 3 342 5 760 5 l760 -1 39 96 c21 52 69 169 105 260 37
91 73 176 80 190 8 14 17 39 20 55 l6 30 -1405 0 c-773 0 -1412 -2 -1420 -5z"/>
<path d="M3764 4564 c-9 -21 -22 -52 -29 -69 -72 -164 -185 -460 -181 -472 4
-8 55 -99 115 -202 59 -102 119 -206 133 -231 14 -25 71 -123 127 -219 55 -96
101 -175 101 -176 0 -2 34 -61 76 -131 42 -71 87 -149 101 -174 14 -25 70
-122 125 -217 l99 -172 -81 -142 c-45 -78 -90 -156 -100 -173 -9 -17 -117
-204 -240 -416 -122 -212 -232 -401 -242 -420 -31 -54 -128 -223 -138 -240 -5
-8 -26 -44 -46 -79 l-36 -64 82 -206 c79 -195 101 -249 136 -330 l15 -34 81
139 c44 76 92 159 106 184 14 25 33 59 43 75 10 17 30 50 44 75 40 72 68 120
112 195 22 39 51 89 64 111 51 88 231 400 242 419 37 61 56 95 79 135 14 25
118 206 231 403 114 196 207 362 207 368 0 5 -58 110 -129 232 -71 122 -138
238 -149 257 -11 19 -104 181 -207 360 -104 179 -195 338 -204 353 -9 16 -20
36 -26 45 -5 9 -79 136 -163 282 -84 146 -157 272 -162 280 -61 102 -90 153
-90 155 0 1 -18 33 -40 71 l-39 68 -17 -40z"/>
<path d="M936 4132 c-9 -10 -16 -21 -16 -24 0 -3 -131 -232 -291 -509 -160
-277 -300 -520 -311 -539 -11 -19 -28 -50 -39 -69 -133 -226 -279 -483 -279
-490 0 -6 29 -60 65 -122 36 -61 65 -113 65 -115 0 -1 31 -55 70 -120 38 -64
70 -118 70 -119 0 -3 99 -176 215 -375 40 -69 82 -141 93 -160 10 -19 77 -134
147 -255 71 -121 142 -245 158 -275 63 -114 61 -112 80 -89 9 10 17 21 17 24
0 4 103 179 206 353 24 40 44 76 44 81 0 4 -23 48 -51 97 -29 49 -63 109 -77
134 -13 25 -28 50 -32 55 -4 6 -19 30 -32 55 -14 25 -49 86 -78 135 -29 50
-62 106 -72 125 -11 19 -90 155 -175 302 l-154 267 134 233 c138 240 275 477
399 691 39 67 82 142 95 167 14 25 29 49 34 54 5 6 9 15 9 22 0 6 -62 117
-139 247 -130 223 -139 236 -155 219z"/>
</g>
</svg>
