<?xml version="1.0" encoding="utf-8"?>
<!-- Generator: Adobe Illustrator 19.0.0, SVG Export Plug-In . SVG Version: 6.00 Build 0)  -->
<svg version="1.1" id="Layer_1" xmlns="http://www.w3.org/2000/svg" xmlns:xlink="http://www.w3.org/1999/xlink" x="0px" y="0px"
	 viewBox="128 -112 1092 1092" style="enable-background:new 128 -112 1092 1092;" xml:space="preserve">
<style type="text/css">
	.st0{stroke:#000000;stroke-width:14.1732;stroke-miterlimit:10;}
</style>
<g>
	<g transform="translate(0.000000,511.000000) scale(0.100000,-0.100000)">
		<path class="st0" d="M2315.5-3150c339.9-581.9,643.1-1096.4,673.8-1142.3l52.1-82.7h1347.4h1347.5l73.5,116.4
			c171.5,263.3,1274,2177.4,1274,2211.1c0,30.6-1258.7,2205-1323,2290.7c-24.5,27.6-336.9,36.8-1375.1,36.8H3041.3l-73.5-113.3
			c-196-306.3-1274-2183.6-1274-2220.3C1696.9-2075.1,1975.6-2568.1,2315.5-3150z M2585-975.6L3173,35h1215.8h1215.8l594.1-1016.8
			c324.7-560.4,591.1-1041.2,591.1-1065.7s-266.4-505.3-591.1-1065.7L5604.6-4130H4388.8H3173l-600.2,1019.8
			c-330.8,557.4-594.1,1041.2-588,1068.8C1987.8-2013.8,2260.4-1533,2585-975.6z"/>
		<path class="st0" d="M2317,2485c339.9-581.9,643.1-1096.4,673.8-1142.3l52.1-82.7h1347.4h1347.5l73.5,116.4
			c168.4,260.3,1274,2177.4,1274,2208.1c0,33.7-1258.7,2211.1-1323,2293.8c-24.5,27.6-336.9,36.8-1375.1,36.8H3042.8l-73.5-113.3
			c-196-306.3-1274-2183.6-1274-2220.3C1698.4,3559.9,1977.1,3066.9,2317,2485z M2586.5,4659.4l588,1010.6h1215.8h1215.8
			l594.1-1016.8c324.7-560.4,591.1-1041.2,591.1-1065.7s-266.4-505.3-591.1-1065.7L5606.1,1505H4390.3H3174.5l-600.2,1019.8
			c-327.7,557.4-594.1,1041.3-588,1068.8C1989.3,3621.2,2261.9,4102,2586.5,4659.4z"/>
		<path class="st0" d="M7017.9-332.6c340-581.9,643.1-1096.4,673.8-1142.3l52.1-82.7h1347.4h1347.5l73.5,116.4
			c168.4,260.3,1274,2177.4,1274,2208.1c0,33.7-1258.7,2211.1-1323,2293.8c-24.5,27.6-336.9,36.8-1375,36.8H7743.7l-73.5-113.4
			c-196-306.3-1274-2183.6-1274-2220.3C6399.3,742.3,6678,249.3,7017.9-332.6z M7287.4,1841.8l588,1010.6l1215.8,0H10307
			l594.1-1016.8c324.7-560.4,591.1-1041.2,591.1-1065.7c0-24.5-266.4-505.3-591.1-1065.7L10307-1312.6H9091.2H7875.4L7275.2-292.8
			c-327.7,557.4-594.1,1041.3-588,1068.8C6690.2,803.6,6962.8,1284.4,7287.4,1841.8z"/>
	</g>
</g>
</svg>
