<?xml version="1.0" encoding="utf-8"?>
<!-- Generator: Adobe Illustrator 19.0.0, SVG Export Plug-In . SVG Version: 6.00 Build 0)  -->
<svg version="1.1" id="Layer_1" xmlns="http://www.w3.org/2000/svg" xmlns:xlink="http://www.w3.org/1999/xlink" x="0px" y="0px"
	 viewBox="0 0 100 100" style="enable-background:new 0 0 100 100;" xml:space="preserve">
<style type="text/css">
	.st0{fill:#F4F3EF;}
</style>
<polygon id="XMLID_4_" class="st0" points="58.8,56.4 50,65 41.2,56.4 34.7,50 34.7,62.8 50,77.7 65.3,62.8 65.3,50 "/>
<path id="XMLID_7_" class="st0" d="M99.2,77.5l-0.1-25.2L56.9,21.7l8.5-8.3V0.8l-6.5,6.4L50,15.7l-8.8-8.6l-6.5-6.4v12.7l8.5,8.3
	L0.9,52.3L0.8,77.5l40-39.8V48l9.2,9l9.2-9V37.7L99.2,77.5z M42,36.5l8-7.8l8,7.8l-8,7.8L42,36.5z"/>
<polygon id="XMLID_1_" class="st0" points="50,86.5 41.2,77.9 40.8,77.5 40.8,90.3 50,99.2 59.2,90.3 59.2,77.5 58.8,77.9 "/>
</svg>
